<svg width="40" height="40" viewBox="0 0 40 40" fill="none" xmlns="http://www.w3.org/2000/svg" >
  <g clip-path="url(#clip0_1_5)">
    <mask id="mask0_1_5" style="mask-type:luminance" maskUnits="userSpaceOnUse" x="0" y="0" width="40" height="40" >
      <path d="M40 0H0V40H40V0Z" fill="white" />
    </mask>
    <g mask="url(#mask0_1_5)">
      <path d="M7.2 10.9653L11.0752 17.892V22.1171L7.20453 29.0301L7.2 10.9653Z" fill="#5B57A2" />
      <path d="M22.0792 15.3715L25.7104 13.1459L33.1419 13.1389L22.0792 19.916V15.3715Z" fill="#D90751" />
      <path d="M22.0587 10.9245L22.0792 20.0952L18.1949 17.7085V4L22.0587 10.9245Z" fill="#FAB718" />
      <path d="M33.1419 13.1389L25.7101 13.1459L22.0587 10.9245L18.1949 4L33.1419 13.1389Z" fill="#ED6F26" />
      <path d="M22.0792 29.0685V24.6192L18.1949 22.2779L18.1971 36L22.0792 29.0685Z" fill="#63B22F" />
      <path d="M25.7013 26.8632L11.0749 17.892L7.2 10.9653L33.1261 26.8541L25.7013 26.8632Z" fill="#1487C9" />
      <path d="M18.1973 36L22.0789 29.0685L25.7011 26.8632L33.1259 26.8541L18.1973 36Z" fill="#017F36" />
      <path d="M7.20453 29.0301L18.2267 22.2781L14.5211 20.0045L11.0752 22.1171L7.20453 29.0301Z" fill="#984995" />
    </g>
  </g>
  <defs>
    <clipPath id="clip0_1_5">
      <rect width="40" height="40" fill="white" />
    </clipPath>
  </defs>
</svg>
