<svg width="40" height="32" viewBox="0 0 40 32" fill="none" xmlns="http://www.w3.org/2000/svg">
<path fill-rule="evenodd" clip-rule="evenodd" d="M33 17C33 24.1797 27.1797 30 20 30C12.8203 30 7 24.1797 7 17C7 9.8203 12.8203 4 20 4C27.1797 4 33 9.8203 33 17ZM24 14C24 16.2091 22.2091 18 20 18C17.7909 18 16 16.2091 16 14C16 11.7909 17.7909 10 20 10C22.2091 10 24 11.7909 24 14ZM27.5696 23.9231C27.3936 23.5007 27.1314 23.3274 26.6069 22.9809C24.7121 21.7289 22.4412 21 20.0001 21C17.559 21 15.2881 21.7289 13.3932 22.981C12.8687 23.3276 12.6065 23.5008 12.4306 23.9232C12.3085 24.2163 12.3085 24.7839 12.4306 25.0769C12.6065 25.4993 12.8688 25.6726 13.3932 26.0191C15.2881 27.2711 17.5589 28 20 28C22.4412 28 24.7121 27.2711 26.6069 26.019C27.1314 25.6724 27.3936 25.4992 27.5696 25.0768C27.6917 24.7838 27.6917 24.2161 27.5696 23.9231Z" fill="black"/>
</svg>
